<svg width="99" height="37" viewBox="0 0 99 37" fill="none" xmlns="http://www.w3.org/2000/svg">
<rect x="11.2453" y="14.0063" width="15.9033" height="15.9033" rx="3.47884" transform="rotate(45 11.2453 14.0063)" fill="#1A75FF"/>
<rect x="21.6818" y="0.0909424" width="15.9033" height="15.9033" rx="3.47884" transform="rotate(45 21.6818 0.0909424)" fill="#33C2FF"/>
<rect x="32.1183" y="14.0063" width="15.9033" height="15.9033" rx="3.47884" transform="rotate(45 32.1183 14.0063)" fill="#000C57"/>
<rect x="21.7318" y="17.9821" width="8.94559" height="8.94559" rx="1.49093" transform="rotate(45 21.7318 17.9821)" fill="white"/>
<path d="M61.5027 21.9752H57.5828V32.6364H54.946V21.9752H51.0789V19.8395H61.5027V21.9752ZM60.6238 27.7936C60.6238 26.8502 60.8054 26.0094 61.1687 25.2711C61.532 24.5328 62.0535 23.9615 62.7332 23.5573C63.4187 23.153 64.2126 22.9508 65.115 22.9508C66.3982 22.9508 67.4441 23.3434 68.2527 24.1285C69.0671 24.9137 69.5212 25.9801 69.615 27.3278L69.6326 27.9781C69.6326 29.4371 69.2253 30.609 68.4109 31.4938C67.5964 32.3727 66.5037 32.8121 65.1326 32.8121C63.7615 32.8121 62.6658 32.3727 61.8455 31.4938C61.031 30.6149 60.6238 29.4196 60.6238 27.9078V27.7936ZM63.1638 27.9781C63.1638 28.8805 63.3337 29.5719 63.6736 30.0524C64.0134 30.527 64.4998 30.7643 65.1326 30.7643C65.7478 30.7643 66.2283 30.5299 66.574 30.0612C66.9197 29.5865 67.0925 28.8307 67.0925 27.7936C67.0925 26.9088 66.9197 26.2233 66.574 25.7369C66.2283 25.2506 65.7419 25.0074 65.115 25.0074C64.4939 25.0074 64.0134 25.2506 63.6736 25.7369C63.3337 26.2174 63.1638 26.9645 63.1638 27.9781ZM74.6511 28.8219L73.7371 29.736V32.6364H71.197V19.1364H73.7371V26.6158L74.2292 25.983L76.6638 23.1266H79.7136L76.2771 27.0905L80.0125 32.6364H77.0945L74.6511 28.8219ZM84.363 29.0416L86.1208 23.1266H88.8455L85.0222 34.1129L84.8113 34.6139C84.2429 35.8561 83.3054 36.4772 81.9988 36.4772C81.6296 36.4772 81.2546 36.4215 80.8738 36.3102V34.3854L81.2605 34.3942C81.741 34.3942 82.0984 34.3209 82.3328 34.1744C82.573 34.028 82.7605 33.7848 82.8953 33.4449L83.1941 32.6627L79.863 23.1266H82.5964L84.363 29.0416ZM89.3113 27.7936C89.3113 26.8502 89.4929 26.0094 89.8562 25.2711C90.2195 24.5328 90.741 23.9615 91.4207 23.5573C92.1062 23.153 92.9001 22.9508 93.8025 22.9508C95.0857 22.9508 96.1316 23.3434 96.9402 24.1285C97.7546 24.9137 98.2087 25.9801 98.3025 27.3278L98.3201 27.9781C98.3201 29.4371 97.9128 30.609 97.0984 31.4938C96.2839 32.3727 95.1912 32.8121 93.8201 32.8121C92.449 32.8121 91.3533 32.3727 90.533 31.4938C89.7185 30.6149 89.3113 29.4196 89.3113 27.9078V27.7936ZM91.8513 27.9781C91.8513 28.8805 92.0212 29.5719 92.3611 30.0524C92.7009 30.527 93.1873 30.7643 93.8201 30.7643C94.4353 30.7643 94.9158 30.5299 95.2615 30.0612C95.6072 29.5865 95.78 28.8307 95.78 27.7936C95.78 26.9088 95.6072 26.2233 95.2615 25.7369C94.9158 25.2506 94.4294 25.0074 93.8025 25.0074C93.1814 25.0074 92.7009 25.2506 92.3611 25.7369C92.0212 26.2174 91.8513 26.9645 91.8513 27.9781Z" fill="#000C57"/>
<rect x="50.7273" y="0.0909424" width="25.3636" height="13.0909" rx="3.27273" fill="#44D600"/>
<path d="M59.6442 9.90918H58.0238V4.7508L56.4322 5.21582V3.98855L59.4956 2.92907H59.6442V9.90918ZM62.7747 8.34153C63.0304 8.34153 63.2429 8.41824 63.4123 8.57164C63.5817 8.72186 63.6664 8.91522 63.6664 9.15172C63.6664 9.38823 63.5817 9.58319 63.4123 9.73659C63.2429 9.88681 63.0304 9.96191 62.7747 9.96191C62.5159 9.96191 62.3017 9.88521 62.1323 9.7318C61.9661 9.57839 61.883 9.38503 61.883 9.15172C61.883 8.91841 61.9661 8.72505 62.1323 8.57164C62.3017 8.41824 62.5159 8.34153 62.7747 8.34153ZM69.5679 7.05673C69.5679 7.99956 69.3553 8.72665 68.9303 9.23801C68.5084 9.74938 67.9123 10.0051 67.1421 10.0051C66.3655 10.0051 65.7646 9.74778 65.3395 9.23322C64.9145 8.71866 64.7019 7.99316 64.7019 7.05673V5.78152C64.7019 4.83869 64.9129 4.11159 65.3347 3.60023C65.7598 3.08887 66.3591 2.83319 67.1325 2.83319C67.9059 2.83319 68.5052 3.09047 68.9303 3.60502C69.3553 4.11958 69.5679 4.84668 69.5679 5.78631V7.05673ZM67.9523 5.57537C67.9523 5.0736 67.8868 4.69966 67.7557 4.45357C67.6247 4.20428 67.417 4.07963 67.1325 4.07963C66.8545 4.07963 66.6515 4.19469 66.5237 4.4248C66.399 4.65492 66.3319 5.00328 66.3223 5.4699V7.25328C66.3223 7.77424 66.3878 8.15616 66.5189 8.39906C66.6499 8.63876 66.8576 8.75861 67.1421 8.75861C67.417 8.75861 67.6199 8.64196 67.7509 8.40865C67.882 8.17214 67.9491 7.803 67.9523 7.30123V5.57537Z" fill="white"/>
</svg>
