<svg width="24" height="25" viewBox="0 0 24 25" fill="none" xmlns="http://www.w3.org/2000/svg">
<path d="M18 8.5C15.79 8.5 14 10.29 14 12.5C14 14.71 15.79 16.5 18 16.5C20.21 16.5 22 14.71 22 12.5C22 10.29 20.21 8.5 18 8.5ZM15.5 12.5C15.5 11.12 16.62 10 18 10C18.42 10 18.8 10.11 19.15 10.29L15.79 13.65C15.61 13.3 15.5 12.92 15.5 12.5ZM18 15C17.58 15 17.2 14.89 16.85 14.71L20.21 11.35C20.39 11.7 20.5 12.08 20.5 12.5C20.5 13.88 19.38 15 18 15Z" fill="#6E759F"/>
<path d="M17 18.5H7V6.5H17V7.5H19V6.5V5.5V3.5C19 2.4 18.1 1.5 17 1.5H7C5.9 1.5 5 2.4 5 3.5V21.5C5 22.6 5.9 23.5 7 23.5H17C18.1 23.5 19 22.6 19 21.5V19.5V18.5V17.5H17V18.5ZM7 3.5H17V4.5H7V3.5ZM17 21.5H7V20.5H17V21.5Z" fill="#6E759F"/>
<path opacity="0.3" d="M17 3.5H7V4.5H17V3.5Z" fill="#6E759F"/>
<path opacity="0.3" d="M17 20.5H7V21.5H17V20.5Z" fill="#6E759F"/>
</svg>
