<svg width="22" height="15" viewBox="0 0 22 15" fill="none" xmlns="http://www.w3.org/2000/svg">
<path d="M0.5 7.64L7 9.98V14.5H15V12.87L19.52 14.5L20.21 12.61L1.19 5.75L0.5 7.64ZM9 10.69L13 12.13V12.5H9V10.69ZM18.84 4.64L10.28 1.55L8.2 7.21L20.56 11.68L21.25 9.79C22.02 7.7 20.94 5.4 18.84 4.64ZM19.37 9.1L19.36 9.12L10.77 6.01L11.47 4.1L18.16 6.51C18.68 6.7 19.09 7.07 19.31 7.56C19.54 8.05 19.56 8.6 19.37 9.1ZM5 6C5.44 6 5.88 5.9 6.3 5.7C7.79 4.98 8.42 3.19 7.71 1.7C7.19 0.63 6.12 0 5 0C4.56 0 4.12 0.1 3.7 0.3C2.21 1.01 1.58 2.8 2.3 4.3C2.81 5.37 3.88 6 5 6ZM4.06 2.66C4.11 2.52 4.24 2.26 4.57 2.1C4.71 2.04 4.85 2 5 2C5.31 2 5.7 2.15 5.9 2.56C6.14 3.06 5.92 3.66 5.43 3.9C5.29 3.96 5.15 4 5 4C4.7 4 4.3 3.85 4.11 3.44C3.94 3.1 4.01 2.81 4.06 2.66Z" fill="#242E6F"/>
</svg>
