<svg width="17" height="23" viewBox="0 0 17 23" fill="none" xmlns="http://www.w3.org/2000/svg">
<path d="M13 7.5C10.79 7.5 9 9.29 9 11.5C9 13.71 10.79 15.5 13 15.5C15.21 15.5 17 13.71 17 11.5C17 9.29 15.21 7.5 13 7.5ZM10.5 11.5C10.5 10.12 11.62 9 13 9C13.42 9 13.8 9.11 14.15 9.29L10.79 12.65C10.61 12.3 10.5 11.92 10.5 11.5ZM13 14C12.58 14 12.2 13.89 11.85 13.71L15.21 10.35C15.39 10.7 15.5 11.08 15.5 11.5C15.5 12.88 14.38 14 13 14Z" fill="#6E759F"/>
<path d="M12 17.5H2V5.5H12V6.5H14V5.5V4.5V2.5C14 1.4 13.1 0.5 12 0.5H2C0.9 0.5 0 1.4 0 2.5V20.5C0 21.6 0.9 22.5 2 22.5H12C13.1 22.5 14 21.6 14 20.5V18.5V17.5V16.5H12V17.5ZM2 2.5H12V3.5H2V2.5ZM12 20.5H2V19.5H12V20.5Z" fill="#6E759F"/>
</svg>
